<?xml version="1.0" encoding="utf-8"?>
<!-- Generator: Adobe Illustrator 16.0.0, SVG Export Plug-In . SVG Version: 6.00 Build 0)  -->
<!DOCTYPE svg PUBLIC "-//W3C//DTD SVG 1.1//EN" "http://www.w3.org/Graphics/SVG/1.1/DTD/svg11.dtd">
<svg version="1.1" id="Layer_1" xmlns="http://www.w3.org/2000/svg" xmlns:xlink="http://www.w3.org/1999/xlink" x="0px" y="0px"
	 width="184.379px" height="59.566px" viewBox="0 0 184.379 59.566" enable-background="new 0 0 184.379 59.566"
	 xml:space="preserve">
<g>
	<path fill="#E57425" d="M60.743,6.134L59.571,8.18c0,0,11.534,6.983,26.098,12.564c14.562,5.583,19.058,6.021,20.527,6.604
		c1.465,0.581,18.029,10.191,18.764,26.551l2.654-0.107c0,0,0.051-7.383-5.197-14.949c-5.252-7.565-9.918-10.428-9.918-10.428
		s3.705,0.478,5.318-0.579l-1.244-2.173c0,0-1.927,1.167-9.648-0.665c-5.174-1.227-14.258-4.064-24.604-8.359
		C70.686,11.81,60.743,6.134,60.743,6.134"/>
	<path fill="#E57425" d="M134.74,25.332v2.618c0,0,5.309-0.051,12.922-2.207c0,0-9.816,7.648-8.615,22.485l2.555-0.103
		c0,0-1.104-8.164,3.105-14.631c4.206-6.469,7.862-8.984,10.717-10.267c2.854-1.283,28.545-9.703,28.955-23.228h-2.662
		c0,0,1.703,5.518-10.968,13.319C158.077,21.124,143.903,24.665,134.74,25.332"/>
	<path fill="#FFFFFF" d="M24.443,45.385h-3.028v14.181h13.604v-2.854H24.443V45.385z M8.814,45.385L0,59.566h3.584l2.558-4.104
		h7.053l2.558,4.104h3.584l-8.814-14.181H8.814z M7.558,52.889l2.11-3.391l2.111,3.391H7.558z M80.244,45.389h-7.631v14.177h7.631
		c4.564,0,9.475-2.218,9.475-7.089C89.719,47.607,84.808,45.389,80.244,45.389 M80.037,56.752h-4.396v-8.551h4.396
		c1.534,0,6.538,0.309,6.538,4.275C86.575,56.445,81.571,56.752,80.037,56.752 M98.979,45.385H97.27l-8.813,14.181h3.584
		l2.558-4.104h7.053l2.559,4.104h3.585L98.979,45.385z M96.014,52.889l2.111-3.391l2.109,3.391H96.014z M66.852,52.112
		c0,3.178-2.288,4.6-4.557,4.6c-2.268,0-4.557-1.422-4.557-4.6v-6.727H54.71v7.061c0,4.919,3.81,7.12,7.585,7.12
		c3.776,0,7.585-2.201,7.585-7.12v-7.061h-3.028V52.112z M45.104,45.385L36.29,59.566h3.584l2.558-4.104h7.053l2.558,4.104h3.584
		l-8.814-14.181H45.104z M43.848,52.889l2.11-3.391l2.111,3.391H43.848z"/>
</g>
</svg>
